# xmcd
#
# Track frame offsets:
# 150
# 17383
# 30136
# 40119
# 53737
# 63536
#
# Disc length: 1111 seconds
#
#
# Revision: 0
# Processed by: cddbd v1.5.2PL0 Copyright (c) Steve Scherf et al.
# Submitted via: FreeRIP 2.943 
#
DISCID=3a045506
DTITLE=horns - The Demon and the Satyr
DYEAR=2007
DGENRE=Noise
TTITLE0=zardoz has spoken
TTITLE1=surrounded by nauplii
TTITLE2=hates bunnies
TTITLE3=the lackadaisical misadventures of bungee cord mahagan
TTITLE4=the incense at catholic church
TTITLE5=Satanic Ihop
EXTD=
EXTT0=
EXTT1=
EXTT2=
EXTT3=
EXTT4=
EXTT5=
PLAYORDER=
